<svg width="21" height="17" viewBox="0 0 21 17" fill="none" xmlns="http://www.w3.org/2000/svg">
<path d="M18.3395 3.1196C18.2601 2.80932 18.0356 2.57522 17.7786 2.503C17.3218 2.37565 15.1042 2.08333 10.4167 2.08333C5.72917 2.08333 3.51202 2.37576 3.05341 2.50336C2.79873 2.5742 2.57429 2.80826 2.49388 3.1196C2.38054 3.5617 2.08333 5.41245 2.08333 8.33333C2.08333 11.2542 2.38054 13.105 2.49419 13.5483C2.57321 13.8574 2.79769 14.0915 3.05368 14.1633C3.51202 14.2909 5.72917 14.5833 10.4167 14.5833C15.1042 14.5833 17.3218 14.291 17.7799 14.1633C18.0346 14.0925 18.2591 13.8584 18.3395 13.5471C18.4528 13.105 18.75 11.25 18.75 8.33333C18.75 5.41667 18.4528 3.5617 18.3395 3.1196ZM20.3575 2.60227C20.8334 4.45833 20.8334 8.33333 20.8334 8.33333C20.8334 8.33333 20.8334 12.2083 20.3575 14.0644C20.0924 15.0909 19.3188 15.8977 18.3381 16.1704C16.5585 16.6667 10.4167 16.6667 10.4167 16.6667C10.4167 16.6667 4.27853 16.6667 2.4952 16.1704C1.51092 15.894 0.737302 15.0871 0.475792 14.0644C1.86265e-07 12.2083 0 8.33333 0 8.33333C0 8.33333 1.86265e-07 4.45833 0.475792 2.60227C0.740927 1.57576 1.51455 0.768937 2.4952 0.496208C4.27853 -1.5522e-07 10.4167 0 10.4167 0C10.4167 0 16.5585 -1.5522e-07 18.3381 0.496208C19.3224 0.772729 20.0961 1.57954 20.3575 2.60227ZM8.33336 11.9792V4.6875L14.5834 8.33333L8.33336 11.9792Z" fill="white"/>
</svg>
